<svg id="Fondo_rojo" data-name="Fondo rojo" xmlns="http://www.w3.org/2000/svg" xmlns:xlink="http://www.w3.org/1999/xlink" viewBox="0 0 1279.46 1280"><defs><style>.cls-1{fill:url(#Degradado_sin_nombre_16);}</style><linearGradient id="Degradado_sin_nombre_16" x1="639.88" y1="1216.39" x2="639.88" y2="66" gradientUnits="userSpaceOnUse"><stop offset="0" stop-color="#e80000"/><stop offset="0.63" stop-color="#f16767"/><stop offset="1" stop-color="#f69f9f"/></linearGradient></defs><title>Pilotos</title><path class="cls-1" d="M1028.88,193.93c-4.51,0-5.66-1.07-5.64-5.62.19-40.77.11-81.54.11-122.31H256.41c0,40.94-.07,81.87.11,122.81,0,4.17-1,5.12-5.14,5.11q-125.29-.19-250.61-.1V349.6c2.59,5.66,1.88,11.85,2.71,17.77C21.37,495.88,86.9,592.31,199,657.11c31.11,18,64.63,30.26,99.72,38.11a8.37,8.37,0,0,1,6,4.44q77.34,135.27,226.33,181a298.84,298.84,0,0,0,40.74,9.52c3.08.49,4.27,1.55,4.25,5q-.26,46.66,0,93.35c0,3.69-1.17,4.24-4.48,4.23-28.79-.13-57.58,0-86.37-.18-4,0-5.26.72-5.22,5,.22,28.79,0,57.58.2,86.37,0,3.64-.73,4.69-4.56,4.67-28.95-.19-57.91,0-86.87-.2-3.71,0-4.63.85-4.62,4.61.15,41.1.1,82.2.1,123.31H895.53c0-40.94-.07-81.87.11-122.81,0-4.16-1-5.15-5.13-5.12-28.79.2-57.58,0-86.37.21-3.8,0-4.59-1-4.57-4.66.16-28.79,0-57.58.21-86.36,0-4.29-1.18-5.08-5.21-5-28.45.19-56.91,0-85.36.23-4.77,0-5.54-1.44-5.51-5.75q.27-45.44,0-90.86c0-4.28,1.28-5.49,5.22-6.2q94.86-17.14,170.26-77.26A376.71,376.71,0,0,0,974.24,701a11.3,11.3,0,0,1,8.23-6c144.55-33,258.36-149.49,288.51-295a410.84,410.84,0,0,0,6.88-47.87c.1-1.17-.6-2.75,1.14-3.44V193.82Q1153.95,193.82,1028.88,193.93ZM256.41,542.59a239.1,239.1,0,0,1-46.06-34.08q-78-74.16-81.8-181.84c-.14-4.17.89-5.15,5-5.13,39.42.17,78.85.1,118.27.1,2.4,0,4.66-.76,4.65,3.49C256.37,397.32,256.41,469.5,256.41,542.59Zm894.61-212c-5.36,91.25-47,161.06-124.13,209.92-.94.59-1.92,1.14-3.54,2.11V347.12c0-7,.24-14-.09-20.95-.18-3.75.87-4.64,4.61-4.62,36.09.15,72.19.09,108.28.09h6C1151.34,321.64,1151.55,321.65,1151,330.63Z"/></svg>