<svg id="Fondo_rojo" data-name="Fondo rojo" xmlns="http://www.w3.org/2000/svg" xmlns:xlink="http://www.w3.org/1999/xlink" viewBox="0 0 1279.46 1280"><defs><style>.cls-1{fill:url(#Rojo_degrdado);}</style><linearGradient id="Rojo_degrdado" x1="639.04" y1="1272" x2="639.04" y2="10.05" gradientUnits="userSpaceOnUse"><stop offset="0" stop-color="#e80000"/><stop offset="0.24" stop-color="#ed3a3a"/><stop offset="0.5" stop-color="#f27070"/><stop offset="0.72" stop-color="#f69898"/><stop offset="0.89" stop-color="#f8b0b0"/><stop offset="1" stop-color="#f9b9b9"/></linearGradient></defs><title>Pilotos</title><path class="cls-1" d="M1083.18,927.25q0,136.14,0,272.27c0,46.7-25.65,72.45-72.08,72.46q-92.46,0-184.92,0c-36.49,0-57.94-21.23-58-57.61-.09-64.67,0-129.33,0-194,0-42.27-25.69-68-67.72-68.06q-61.26-.09-122.52,0c-42.2,0-67.92,25.66-68,67.8q-.1,96.44,0,192.86c0,38-21,59-58.9,59q-93,0-186,0c-43.53,0-70-26.37-70-69.92q-.09-276.24.23-552.49c0-10.74-2.29-13.9-13.46-13.7-41.21.75-82.43.34-123.65.28-18.18,0-22-4-22-22,0-19.31,8.14-34.76,21.66-48.19q73.64-73.15,146.87-146.73Q398.3,225.56,592,31.77c18.42-18.46,39.27-26.19,64.79-19.14,12.47,3.45,21.77,11.66,30.69,20.59Q852.65,198.54,1018,363.73,1118.65,464.4,1219.43,565c14.74,14.64,23.52,31.27,22.57,52.34-.66,14.79-4.54,18.75-19.43,18.8-42.36.16-84.72.37-127.06-.18-9.73-.13-12.65,2-12.6,12.25C1083.37,741.19,1083.18,834.22,1083.18,927.25Z"/></svg>