<svg id="Fondo_rojo" data-name="Fondo rojo" xmlns="http://www.w3.org/2000/svg" xmlns:xlink="http://www.w3.org/1999/xlink" viewBox="0 0 1279.46 1280"><defs><style>.cls-1{fill:url(#Rojo_degrdado);}</style><linearGradient id="Rojo_degrdado" x1="639.73" y1="1282" x2="639.73" y2="2" gradientUnits="userSpaceOnUse"><stop offset="0" stop-color="#e80000"/><stop offset="0.24" stop-color="#ed3a3a"/><stop offset="0.5" stop-color="#f27070"/><stop offset="0.72" stop-color="#f69898"/><stop offset="0.89" stop-color="#f8b0b0"/><stop offset="1" stop-color="#f9b9b9"/></linearGradient></defs><title>Pilotos</title><path class="cls-1" d="M1278.53,607.81c0-.61-.07-1.23-.1-1.85a4.61,4.61,0,0,0,0-.74c-5.86-100.16-32.86-194.28-83.41-280.93q-2.62-4.49-5.29-8.9a624.08,624.08,0,0,0-64.85-90.59A616.61,616.61,0,0,0,936.69,75.05a2.47,2.47,0,0,1-.15-.87l-17.8-8.07q-12.53-6-25.43-11.54l-21.4-9.7a1.85,1.85,0,0,1-1.07.54q-23.43-9.09-48-16.69C775.08,14,726.09,5.88,676.22,3a9.92,9.92,0,0,0-1.3.09L673.79,3a1.72,1.72,0,0,1-1.08-1h-69a1.66,1.66,0,0,1-1,1.1l-1.36.09a5.67,5.67,0,0,0-1.07-.06A633,633,0,0,0,450.48,30.52Q325.07,69.82,227.57,152.41a659.77,659.77,0,0,0-54.35,51.42,614,614,0,0,0-66.58,84,622.51,622.51,0,0,0-34.77,58.73,1.71,1.71,0,0,1-.9.17l-7.86,17.33Q57,376.74,51.5,389.69q-3.89,8.58-7.78,17.15a15.7,15.7,0,0,1-.28,2.68q-3.13,8.09-6,16.28C16.42,484,3.54,543.79.68,605.32a2.56,2.56,0,0,1-.68.42v71c1.73.72,1,2.29,1.09,3.46A647.27,647.27,0,0,0,12.48,768Q39.63,908.2,126.05,1023.11l0,0c.86,1.15,1.73,2.29,2.6,3.44q19.19,25.34,41.09,49c1.39,1.5,2.79,3,4.19,4.46l0,0q17.66,18.86,37.1,36.94c38.82,36.08,82.46,65.59,129.24,90.46a15.69,15.69,0,0,0,1.6.6l.7.36a1.89,1.89,0,0,1,.84,1.68l61.91,28.07c1.4-1.18,2.51.11,3.62.54,64,24.64,129.59,39.1,196.55,42.51a1.36,1.36,0,0,1,.13.24h5.21q25.57,1.07,51.41,0h9.35a13.45,13.45,0,0,1,1.57-.57c8.67-.53,17.36-1.22,26.08-2.12l2.54-.27c52.45-5,103.53-15.91,152.77-33.88q142.26-49.9,251.23-164.88l.45.47a609.92,609.92,0,0,0,65.53-83A662.29,662.29,0,0,0,1206.19,939c.55-1.05.49-2.78,2.35-2.78q14.24-31.41,28.49-62.82c-1.38-1.34,0-2.48.38-3.57q5.88-15.51,11-31.23c.32-1,.66-1.9,1-2.85,16.82-50.25,25.68-102.19,29-155.06a12.11,12.11,0,0,0-.1-1.56c0-.38,0-.77.07-1.15a1.94,1.94,0,0,1,1.14-1.25v-68A1.71,1.71,0,0,1,1278.53,607.81ZM640,299.46c147.14-.13,266.77,119.27,266.85,266.34A267.33,267.33,0,0,1,639.94,832.88C511.79,833,404.75,742.75,379,622.28l.41-.64a267.08,267.08,0,0,1-5.86-55.43C373.34,419.22,492.83,299.59,640,299.46ZM943,1080a532.29,532.29,0,0,0-303-94.77,518.11,518.11,0,0,0-133.88,16.93,528.87,528.87,0,0,0-169.83,78,524.86,524.86,0,0,1-83.6-71.4Q341,941.4,450.62,907.05a633,633,0,0,1,149.86-27.39c1.16-.08,2.75.68,3.41-1.13h69c.77,1.69,2.32.93,3.5,1,49.87,2.89,98.86,11,146.6,25.73q114.59,35.4,203.76,103A532.44,532.44,0,0,1,943,1080Z"/></svg>